<svg width="1600" height="900" viewBox="0 0 1600 900" fill="none" xmlns="http://www.w3.org/2000/svg">
  <defs>
    <linearGradient id="bg" x1="80" y1="40" x2="1480" y2="860" gradientUnits="userSpaceOnUse">
      <stop stop-color="#E0F2FE"/>
      <stop offset="0.48" stop-color="#EEF2FF"/>
      <stop offset="1" stop-color="#E2E8F0"/>
    </linearGradient>
    <linearGradient id="panel" x1="322" y1="210" x2="1238" y2="690" gradientUnits="userSpaceOnUse">
      <stop stop-color="#0F172A"/>
      <stop offset="1" stop-color="#1E293B"/>
    </linearGradient>
    <linearGradient id="bar1" x1="0" y1="0" x2="0" y2="1">
      <stop stop-color="#22D3EE"/>
      <stop offset="1" stop-color="#0284C7"/>
    </linearGradient>
    <linearGradient id="bar2" x1="0" y1="0" x2="0" y2="1">
      <stop stop-color="#C4B5FD"/>
      <stop offset="1" stop-color="#4F46E5"/>
    </linearGradient>
    <filter id="shadow" x="246" y="160" width="1108" height="612" filterUnits="userSpaceOnUse" color-interpolation-filters="sRGB">
      <feDropShadow dx="0" dy="24" stdDeviation="28" flood-color="#0F172A" flood-opacity="0.18"/>
    </filter>
  </defs>

  <rect width="1600" height="900" rx="32" fill="url(#bg)"/>
  <circle cx="1370" cy="120" r="220" fill="#BAE6FD" fill-opacity="0.55"/>
  <circle cx="210" cy="760" r="250" fill="#C7D2FE" fill-opacity="0.4"/>
  <circle cx="1500" cy="820" r="180" fill="#E9D5FF" fill-opacity="0.45"/>

  <g filter="url(#shadow)">
    <rect x="300" y="190" width="1000" height="540" rx="28" fill="url(#panel)"/>
    <rect x="300.5" y="190.5" width="999" height="539" rx="27.5" stroke="#334155"/>
  </g>

  <rect x="340" y="230" width="270" height="86" rx="18" fill="#111827"/>
  <text x="372" y="273" fill="#FFFFFF" font-family="system-ui, -apple-system, sans-serif" font-size="34" font-weight="700">Kalle</text>
  <text x="372" y="298" fill="#93C5FD" font-family="system-ui, -apple-system, sans-serif" font-size="15" font-weight="600" letter-spacing="1">DASHBOARD VENTES / STOCK</text>

  <rect x="640" y="230" width="190" height="86" rx="18" fill="#111827"/>
  <text x="668" y="263" fill="#94A3B8" font-family="system-ui, -apple-system, sans-serif" font-size="14">Total ventes</text>
  <text x="668" y="294" fill="#F8FAFC" font-family="system-ui, -apple-system, sans-serif" font-size="28" font-weight="700">12 480</text>

  <rect x="850" y="230" width="190" height="86" rx="18" fill="#111827"/>
  <text x="878" y="263" fill="#94A3B8" font-family="system-ui, -apple-system, sans-serif" font-size="14">Clients</text>
  <text x="878" y="294" fill="#F8FAFC" font-family="system-ui, -apple-system, sans-serif" font-size="28" font-weight="700">1 284</text>

  <rect x="1060" y="230" width="200" height="86" rx="18" fill="#111827"/>
  <text x="1088" y="263" fill="#94A3B8" font-family="system-ui, -apple-system, sans-serif" font-size="14">Tendance</text>
  <text x="1088" y="294" fill="#34D399" font-family="system-ui, -apple-system, sans-serif" font-size="28" font-weight="700">+18.4%</text>

  <rect x="340" y="344" width="640" height="346" rx="22" fill="#0B1220"/>
  <rect x="340.5" y="344.5" width="639" height="345" rx="21.5" stroke="#334155"/>
  <text x="372" y="384" fill="#E2E8F0" font-family="system-ui, -apple-system, sans-serif" font-size="18" font-weight="600">Analytics - ventes / visiteurs</text>
  <text x="372" y="410" fill="#94A3B8" font-family="system-ui, -apple-system, sans-serif" font-size="13">Vue simplifiee pour la carte du portfolio</text>

  <line x1="372" y1="650" x2="948" y2="650" stroke="#334155" stroke-width="1.5"/>
  <line x1="372" y1="476" x2="948" y2="476" stroke="#1E293B" stroke-width="1.5"/>
  <line x1="372" y1="563" x2="948" y2="563" stroke="#1E293B" stroke-width="1.5"/>

  <rect x="404" y="563" width="42" height="87" rx="10" fill="url(#bar1)"/>
  <rect x="462" y="520" width="42" height="130" rx="10" fill="url(#bar1)"/>
  <rect x="520" y="498" width="42" height="152" rx="10" fill="url(#bar1)"/>
  <rect x="578" y="540" width="42" height="110" rx="10" fill="url(#bar1)"/>
  <rect x="636" y="472" width="42" height="178" rx="10" fill="url(#bar1)"/>
  <rect x="694" y="448" width="42" height="202" rx="10" fill="url(#bar1)"/>

  <rect x="782" y="534" width="42" height="116" rx="10" fill="url(#bar2)"/>
  <rect x="840" y="491" width="42" height="159" rx="10" fill="url(#bar2)"/>
  <rect x="898" y="455" width="42" height="195" rx="10" fill="url(#bar2)"/>

  <rect x="1008" y="344" width="252" height="166" rx="22" fill="#0B1220"/>
  <rect x="1008.5" y="344.5" width="251" height="165" rx="21.5" stroke="#334155"/>
  <text x="1040" y="382" fill="#E2E8F0" font-family="system-ui, -apple-system, sans-serif" font-size="17" font-weight="600">Modules</text>

  <g fill="#CBD5E1" font-family="system-ui, -apple-system, sans-serif" font-size="13">
    <text x="1040" y="417">Auth (NextAuth)</text>
    <text x="1040" y="446">MongoDB / Mongoose</text>
    <text x="1040" y="475">CSV export</text>
  </g>
  <circle cx="1024" cy="412" r="5" fill="#22D3EE"/>
  <circle cx="1024" cy="441" r="5" fill="#818CF8"/>
  <circle cx="1024" cy="470" r="5" fill="#34D399"/>

  <rect x="1008" y="524" width="252" height="166" rx="22" fill="#0B1220"/>
  <rect x="1008.5" y="524.5" width="251" height="165" rx="21.5" stroke="#334155"/>
  <text x="1040" y="562" fill="#E2E8F0" font-family="system-ui, -apple-system, sans-serif" font-size="17" font-weight="600">Roadmap</text>
  <g fill="#94A3B8" font-family="system-ui, -apple-system, sans-serif" font-size="12">
    <text x="1040" y="594">Connecteurs marketplaces</text>
    <text x="1040" y="621">Sync ventes / stocks</text>
    <text x="1040" y="648">Consolidation multi-plateformes</text>
  </g>
</svg>
